#N canvas 471 336 1032 468 12;
#X obj 38 241 dac~ 1 2;
#X obj 35 90 adc~ 1 2;
#X obj 38 200 *~;
#X obj 48 135 r~ p1;
#X obj 129 88 flapiinfra;
#X obj 50 166 *~ 2;
#X obj 390 88 r b1;
#X obj 434 297 s oledNumber;
#N canvas 187 55 450 360 knapp1 1;
#X floatatom 60 154 5 0 0 0 - - - 0;
#X floatatom 182 205 5 0 0 0 - - - 0;
#X obj 112 129 + 1;
#X obj 60 101 bng 19 250 50 0 empty empty empty 0 -10 0 12 #fcfcfc #000000 #000000;
#X obj 60 206 sel 1;
#X msg 92 101 0;
#X obj 60 181 expr if($f1 ==1 \, 1 \, 0);
#X obj 60 76 t b b;
#X obj 121 235 delay 1000;
#X obj 60 129 int, f 5;
#X obj 32 13 inlet knapp;
#X obj 58 289 outlet knapp;
#X obj 60 54 r bang1;
#X obj 121 259 s bang1;
#X connect 0 0 6 0;
#X connect 2 0 9 1;
#X connect 3 0 9 0;
#X connect 4 0 8 0;
#X connect 4 0 11 0;
#X connect 5 0 9 1;
#X connect 6 0 4 0;
#X connect 6 0 1 0;
#X connect 7 0 3 0;
#X connect 7 1 5 0;
#X connect 8 0 13 0;
#X connect 9 0 0 0;
#X connect 9 0 2 0;
#X connect 10 0 3 0;
#X connect 12 0 7 0;
#X restore 430 145 pd knapp1;
#N canvas 187 55 450 360 knapp2 1;
#X floatatom 60 154 5 0 0 0 - - - 0;
#X floatatom 182 205 5 0 0 0 - - - 0;
#X obj 112 129 + 1;
#X obj 60 101 bng 19 250 50 0 empty empty empty 0 -10 0 12 #fcfcfc #000000 #000000;
#X obj 60 206 sel 1;
#X msg 92 101 0;
#X obj 60 181 expr if($f1 ==1 \, 1 \, 0);
#X obj 60 76 t b b;
#X obj 121 235 delay 1000;
#X obj 60 129 int, f 5;
#X obj 32 13 inlet knapp;
#X obj 58 289 outlet knapp;
#X obj 122 260 s bang2;
#X obj 60 55 r bang2;
#X connect 0 0 6 0;
#X connect 2 0 9 1;
#X connect 3 0 9 0;
#X connect 4 0 8 0;
#X connect 4 0 11 0;
#X connect 5 0 9 1;
#X connect 6 0 4 0;
#X connect 6 0 1 0;
#X connect 7 0 3 0;
#X connect 7 1 5 0;
#X connect 8 0 12 0;
#X connect 9 0 0 0;
#X connect 9 0 2 0;
#X connect 10 0 3 0;
#X connect 13 0 7 0;
#X restore 512 145 pd knapp2;
#X obj 507 86 r b2;
#N canvas 243 156 631 481 BryterInn 0;
#X obj 206 94 bng 30 250 50 0 empty empty up 0 -10 0 12 #c6ffc7 #000000 #000000;
#X obj 137 257 int, f 7;
#X obj 138 284 % 4, f 11;
#X obj 103 95 bng 30 250 50 0 empty empty down 0 -10 0 12 #feffc6 #000000 #000000;
#X msg 179 180 -1;
#X obj 218 153 t b b b, f 8;
#X obj 201 258 +;
#X msg 272 180 1;
#X obj 112 154 t b b b, f 10;
#X obj 241 129 r bup;
#X obj 137 130 r bdown;
#X floatatom 69 353 5 0 0 0 - - - 16;
#X obj 93 42 inlet down;
#X obj 223 29 inlet up;
#X obj 66 391 outlet;
#X obj 113 320 + 1;
#X obj 42 183 loadbang;
#X msg 42 207 0;
#X connect 0 0 5 0;
#X connect 1 0 2 0;
#X connect 1 0 6 0;
#X connect 2 0 15 0;
#X connect 3 0 8 0;
#X connect 4 0 6 1;
#X connect 5 0 1 0;
#X connect 5 1 6 0;
#X connect 5 2 7 0;
#X connect 6 0 1 1;
#X connect 7 0 6 1;
#X connect 8 0 1 0;
#X connect 8 1 6 0;
#X connect 8 2 4 0;
#X connect 9 0 5 0;
#X connect 10 0 8 0;
#X connect 11 0 14 0;
#X connect 12 0 3 0;
#X connect 13 0 0 0;
#X connect 15 0 11 0;
#X connect 16 0 17 0;
#X connect 17 0 1 0;
#X restore 433 190 pd BryterInn;
#X obj 453 256 sel 1 2 3 4;
#X obj 94 203 *~;
#X obj 106 169 *~ 2;
#X obj 104 138 r~ p2;
#X text 34 287 2 channels separate input to separate output channels. Gain control on P1 and P2, f 32;
#X text 33 52 FLAPIBOX SOUND TEST;
#X text 430 42 FLAPIBOX BUTTON CONTROL;
#X text 398 338 Controller snippet for the two momentary buttons (B1 \, B2). Buttons scrolling from 1-4 \, up and down and displaying it on the OLED-screen, f 43;
#X connect 1 0 2 0;
#X connect 1 1 13 0;
#X connect 2 0 0 0;
#X connect 3 0 5 0;
#X connect 5 0 2 1;
#X connect 6 0 8 0;
#X connect 8 0 11 0;
#X connect 9 0 11 1;
#X connect 10 0 9 0;
#X connect 11 0 7 0;
#X connect 11 0 12 0;
#X connect 13 0 0 1;
#X connect 14 0 13 1;
#X connect 15 0 14 0;
