#N canvas 577 165 702 706 12;
#X obj 61 92 snapshot~;
#X obj 145 42 loadbang;
#X obj 61 145 rmstodb~;
#X obj 61 119 sig~;
#X obj 61 174 snapshot~;
#X floatatom 61 232 5 0 0 0 - - - 0;
#X obj 61 204 int;
#X obj 146 66 metro 100;
#X obj 262 42 bng 19 250 50 0 empty empty empty 0 -10 0 12 #fcfcfc #000000 #000000;
#X obj 62 377 sel 0 1 2 3 4 5, f 44;
#X obj 145 89 s bang1;
#X obj 147 144 r bang1;
#X obj 62 266 expr if($f1 <21 && $f1 >0 \, 0 \, if($f1 <36 && $f1 >20 \, 1 \, if($f1 <51 && $f1 >35 \, 2 \, if($f1 <61 && $f1 >50 \, 3 \, if($f1 <81 && $f1 >60 \, 4 \, if($f1 <100 && $f1 >80 \, 5 \, 8 )))))), f 29;
#X obj 61 41 inlet~;
#X obj 62 414 outlet one, f 6;
#X obj 112 414 outlet two, f 6;
#X obj 163 414 outlet three, f 6;
#X obj 214 414 outlet four, f 6;
#X obj 265 414 outlet five, f 6;
#X obj 316 414 outlet six, f 6;
#X connect 0 0 3 0;
#X connect 1 0 7 0;
#X connect 2 0 4 0;
#X connect 3 0 2 0;
#X connect 4 0 6 0;
#X connect 5 0 12 0;
#X connect 6 0 5 0;
#X connect 7 0 0 0;
#X connect 7 0 10 0;
#X connect 8 0 7 0;
#X connect 9 0 14 0;
#X connect 9 1 15 0;
#X connect 9 2 16 0;
#X connect 9 3 17 0;
#X connect 9 4 18 0;
#X connect 9 5 19 0;
#X connect 11 0 4 0;
#X connect 12 0 9 0;
#X connect 13 0 0 0;
