#N canvas 435 181 1367 871 10;
#X obj 25 51 cnv 20 150 200 empty empty DIGITAL\ PINS 20 12 0 10 #e0e0e0 #404040 0;
#X obj 41 122 s bela_setDigital;
#X msg 41 101 in 11 \, in 12, f 16;
#X obj 40 175 s b1, f 18;
#X obj 39 220 s b2, f 18;
#X obj 194 52 cnv 20 150 200 empty empty ANALOG\ PINS 20 12 0 10 #e0e0e0 #404040 0;
#X obj 211 184 adc~ 4;
#X obj 260 137 adc~ 5;
#X obj 261 183 adc~ 6;
#X obj 211 159 s~ p1;
#X obj 211 205 s~ p2;
#X obj 260 158 s~ p3;
#X obj 261 204 s~ p4;
#X obj 211 138 adc~ 3;
#X obj 210 91 adc~ 1;
#X obj 210 112 s~ audio1;
#X obj 274 90 adc~ 2;
#X obj 274 112 s~ audio2;
#X obj 661 220 print backward;
#X obj 558 70 loadbang;
#X msg 586 132 disconnect;
#X obj 699 137 list prepend send;
#X obj 699 158 list trim;
#X obj 588 187 netsend -u -b;
#X msg 560 102 connect bela.local 7562;
#X text 441 140 send OSC to Bela;
#X obj 40 154 r bela_digitalIn11;
#X obj 39 199 r bela_digitalIn12;
#X obj 790 87 oscformat number;
#X obj 771 41 r oledNumber;
#X obj 208 368 print;
#X obj 41 80 loadbang, f 17;
#X connect 2 0 1 0;
#X connect 6 0 10 0;
#X connect 7 0 11 0;
#X connect 8 0 12 0;
#X connect 13 0 9 0;
#X connect 14 0 15 0;
#X connect 16 0 17 0;
#X connect 19 0 24 0;
#X connect 20 0 23 0;
#X connect 21 0 22 0;
#X connect 22 0 23 0;
#X connect 23 1 18 0;
#X connect 24 0 23 0;
#X connect 26 0 3 0;
#X connect 26 0 30 0;
#X connect 27 0 4 0;
#X connect 28 0 21 0;
#X connect 29 0 28 0;
#X connect 31 0 2 0;
