#N canvas 644 188 820 552 12;
#X floatatom 44 140 5 0 0 0 - - - 0;
#X obj 94 325 osc~;
#X obj 94 360 *~;
#X obj 146 324 osc~;
#X obj 146 300 * 2;
#X floatatom 45 209 5 0 0 0 - - - 0;
#X floatatom 94 209 5 0 0 0 - - - 0;
#X obj 146 360 *~;
#X floatatom 248 155 5 0 0 0 - - - 0;
#X floatatom 248 221 5 0 0 0 - - - 0;
#X floatatom 302 206 5 0 0 0 - - - 0;
#X obj 248 177 moses 80;
#X obj 302 236 / 100;
#X floatatom 302 258 5 0 0 0 - - - 0;
#X obj 200 325 vline~, f 18;
#X obj 46 117 sigmund~ -hop 12000 pitch env;
#X obj 94 239 mtof;
#X floatatom 94 270 5 0 0 0 - - - 0;
#X obj 134 443 *~ 0.5;
#X obj 45 177 moses 20;
#X obj 46 64 inlet~;
#X obj 135 487 outlet~;
#X obj 238 376 inlet SineVolume;
#X text 365 376 Float;
#X msg 201 299 \$1 500 \, 0 500 500;
#X connect 0 0 19 0;
#X connect 1 0 2 0;
#X connect 2 0 18 0;
#X connect 3 0 7 0;
#X connect 4 0 3 0;
#X connect 6 0 16 0;
#X connect 7 0 18 0;
#X connect 8 0 11 0;
#X connect 10 0 12 0;
#X connect 11 0 9 0;
#X connect 11 1 10 0;
#X connect 12 0 13 0;
#X connect 13 0 24 0;
#X connect 14 0 7 1;
#X connect 14 0 2 1;
#X connect 15 0 0 0;
#X connect 15 1 8 0;
#X connect 16 0 17 0;
#X connect 17 0 1 0;
#X connect 17 0 4 0;
#X connect 18 0 21 0;
#X connect 19 0 5 0;
#X connect 19 1 6 0;
#X connect 20 0 15 0;
#X connect 22 0 18 1;
#X connect 24 0 14 0;
