#N canvas 768 146 527 566 12;
#X obj 104 321 *~ 0.7;
#X floatatom 105 217 5 0 0 0 - - - 0;
#X obj 55 352 lop~ 2000, f 7;
#X obj 37 10 inlet~;
#X obj 149 478 outlet~;
#X obj 104 10 inlet bang, f 5;
#X obj 150 10 inlet random, f 7;
#X obj 208 11 inlet ofset, f 7;
#X obj 105 150 random \$1, f 7;
#X obj 105 188 + \$1, f 8;
#X obj 265 11 inlet feedback, f 9;
#X obj 43 393 delwrite~ \$0-del 4000, f 10;
#X obj 105 282 delread4~ \$0-del, f 9;
#X obj 105 243 vline~ \$1 100, f 7;
#X connect 0 0 2 0;
#X connect 0 0 4 0;
#X connect 1 0 13 0;
#X connect 2 0 11 0;
#X connect 3 0 11 0;
#X connect 5 0 8 0;
#X connect 6 0 8 1;
#X connect 7 0 9 1;
#X connect 8 0 9 0;
#X connect 9 0 1 0;
#X connect 10 0 0 1;
#X connect 12 0 0 0;
#X connect 13 0 12 0;
